{
    "asset" : {
        "generator" : "Khronos glTF Blender I/O v1.4.40",
        "version" : "2.0"
    },
    "scene" : 0,
    "scenes" : [
        {
            "name" : "Scene",
            "nodes" : [
                0
            ]
        }
    ],
    "nodes" : [
        {
            "mesh" : 0,
            "name" : "Hat",
            "rotation" : [
                0,
                -0.5746421217918396,
                0,
                0.8184048533439636
            ],
            "translation" : [
                0.37042927742004395,
                7.700926303863525,
                0.09012030810117722
            ]
        }
    ],
    "materials" : [
        {
            "doubleSided" : true,
            "name" : "Hat",
            "pbrMetallicRoughness" : {
                "baseColorTexture" : {
                    "index" : 0,
                    "texCoord" : 0
                },
                "metallicFactor" : 0,
                "roughnessFactor" : 0.800000011920929
            }
        }
    ],
    "meshes" : [
        {
            "name" : "Circle",
            "primitives" : [
                {
                    "attributes" : {
                        "POSITION" : 0,
                        "NORMAL" : 1,
                        "TEXCOORD_0" : 2
                    },
                    "indices" : 3,
                    "material" : 0
                }
            ]
        }
    ],
    "textures" : [
        {
            "sampler" : 0,
            "source" : 0
        }
    ],
    "images" : [
        {
            "bufferView" : 4,
            "mimeType" : "image/jpeg",
            "name" : "Hat"
        }
    ],
    "accessors" : [
        {
            "bufferView" : 0,
            "componentType" : 5126,
            "count" : 529,
            "max" : [
                1.9699510335922241,
                2.660653591156006,
                2.145015239715576
            ],
            "min" : [
                -1.9699510335922241,
                -0.016619928181171417,
                -1.9699510335922241
            ],
            "type" : "VEC3"
        },
        {
            "bufferView" : 1,
            "componentType" : 5126,
            "count" : 529,
            "type" : "VEC3"
        },
        {
            "bufferView" : 2,
            "componentType" : 5126,
            "count" : 529,
            "type" : "VEC2"
        },
        {
            "bufferView" : 3,
            "componentType" : 5123,
            "count" : 2556,
            "type" : "SCALAR"
        }
    ],
    "bufferViews" : [
        {
            "buffer" : 0,
            "byteLength" : 6348,
            "byteOffset" : 0
        },
        {
            "buffer" : 0,
            "byteLength" : 6348,
            "byteOffset" : 6348
        },
        {
            "buffer" : 0,
            "byteLength" : 4232,
            "byteOffset" : 12696
        },
        {
            "buffer" : 0,
            "byteLength" : 5112,
            "byteOffset" : 16928
        },
        {
            "buffer" : 0,
            "byteLength" : 22358,
            "byteOffset" : 22040
        }
    ],
    "samplers" : [
        {
            "magFilter" : 9729,
            "minFilter" : 9986
        }
    ],
    "buffers" : [
        {
            "byteLength" : 44400,
            "uri" : "data:application/octet-stream;base64,"
        }
    ]
}
