{
    "asset" : {
        "generator" : "Khronos glTF Blender I/O v1.4.40",
        "version" : "2.0"
    },
    "scene" : 0,
    "scenes" : [
        {
            "name" : "Scene",
            "nodes" : [
                0
            ]
        }
    ],
    "nodes" : [
        {
            "mesh" : 0,
            "name" : "Heart",
            "scale" : [
                1.2204917669296265,
                1.0661473274230957,
                1.2671276330947876
            ]
        }
    ],
    "animations" : [
        {
            "channels" : [
                {
                    "sampler" : 0,
                    "target" : {
                        "node" : 0,
                        "path" : "rotation"
                    }
                },
                {
                    "sampler" : 1,
                    "target" : {
                        "node" : 0,
                        "path" : "scale"
                    }
                }
            ],
            "name" : "HeartAction",
            "samplers" : [
                {
                    "input" : 4,
                    "interpolation" : "LINEAR",
                    "output" : 5
                },
                {
                    "input" : 4,
                    "interpolation" : "LINEAR",
                    "output" : 6
                }
            ]
        }
    ],
    "materials" : [
        {
            "doubleSided" : true,
            "name" : "Heart",
            "pbrMetallicRoughness" : {
                "baseColorFactor" : [
                    1,
                    0.05780529975891113,
                    0.057805441319942474,
                    1
                ],
                "metallicFactor" : 0.31272727251052856,
                "roughnessFactor" : 0.5381817817687988
            }
        }
    ],
    "meshes" : [
        {
            "name" : "Heart",
            "primitives" : [
                {
                    "attributes" : {
                        "POSITION" : 0,
                        "NORMAL" : 1,
                        "TEXCOORD_0" : 2
                    },
                    "indices" : 3,
                    "material" : 0
                }
            ]
        }
    ],
    "accessors" : [
        {
            "bufferView" : 0,
            "componentType" : 5126,
            "count" : 1382,
            "max" : [
                0.8188550472259521,
                0.8336091637611389,
                0.2930549085140228
            ],
            "min" : [
                -0.8188550472259521,
                -0.8432604074478149,
                -0.29305487871170044
            ],
            "type" : "VEC3"
        },
        {
            "bufferView" : 1,
            "componentType" : 5126,
            "count" : 1382,
            "type" : "VEC3"
        },
        {
            "bufferView" : 2,
            "componentType" : 5126,
            "count" : 1382,
            "type" : "VEC2"
        },
        {
            "bufferView" : 3,
            "componentType" : 5123,
            "count" : 6912,
            "type" : "SCALAR"
        },
        {
            "bufferView" : 4,
            "componentType" : 5126,
            "count" : 40,
            "max" : [
                1.6666666666666667
            ],
            "min" : [
                0.041666666666666664
            ],
            "type" : "SCALAR"
        },
        {
            "bufferView" : 5,
            "componentType" : 5126,
            "count" : 40,
            "type" : "VEC4"
        },
        {
            "bufferView" : 6,
            "componentType" : 5126,
            "count" : 40,
            "type" : "VEC3"
        }
    ],
    "bufferViews" : [
        {
            "buffer" : 0,
            "byteLength" : 16584,
            "byteOffset" : 0
        },
        {
            "buffer" : 0,
            "byteLength" : 16584,
            "byteOffset" : 16584
        },
        {
            "buffer" : 0,
            "byteLength" : 11056,
            "byteOffset" : 33168
        },
        {
            "buffer" : 0,
            "byteLength" : 13824,
            "byteOffset" : 44224
        },
        {
            "buffer" : 0,
            "byteLength" : 160,
            "byteOffset" : 58048
        },
        {
            "buffer" : 0,
            "byteLength" : 640,
            "byteOffset" : 58208
        },
        {
            "buffer" : 0,
            "byteLength" : 480,
            "byteOffset" : 58848
        }
    ],
    "buffers" : [
        {
            "byteLength" : 59328,
            "uri" : "data:application/octet-stream;base64,"
        }
    ]
}
